<?xml version="1.0" standalone="no"?>
<!DOCTYPE svg PUBLIC "-//W3C//DTD SVG 20010904//EN"
 "http://www.w3.org/TR/2001/REC-SVG-20010904/DTD/svg10.dtd">
<svg version="1.0" xmlns="http://www.w3.org/2000/svg"
 width="512.000000pt" height="512.000000pt" viewBox="0 0 512.000000 512.000000"
 preserveAspectRatio="xMidYMid meet">

<g transform="translate(0.000000,512.000000) scale(0.100000,-0.100000)"
fill="#000000" stroke="none">
<path d="M3045 5114 c-16 -2 -66 -9 -110 -15 -127 -17 -298 -68 -433 -130
-617 -283 -991 -920 -941 -1600 17 -224 75 -427 181 -629 76 -146 150 -249
263 -368 235 -248 523 -405 875 -479 133 -28 489 -25 625 5 143 31 244 66 375
128 419 201 735 572 864 1015 41 145 59 272 60 439 2 279 -53 511 -176 753
-68 133 -106 160 -162 116 -37 -29 -33 -63 18 -160 50 -93 110 -239 102 -247
-3 -2 -63 19 -133 49 -219 90 -270 78 -408 -103 -48 -62 -97 -117 -111 -122
-18 -8 -43 -3 -104 17 -123 42 -147 38 -302 -40 -158 -81 -186 -111 -195 -211
-5 -49 -2 -69 17 -106 30 -63 73 -93 193 -135 l102 -36 71 -139 c77 -151 116
-197 181 -215 21 -6 104 -11 184 -11 128 0 149 -2 170 -19 13 -10 48 -68 78
-129 l55 -111 -41 -53 c-115 -152 -302 -305 -490 -400 -119 -60 -123 -62 -138
-43 -29 38 -27 63 9 172 20 59 36 122 36 138 0 33 -195 449 -236 502 -30 40
-101 68 -151 60 -21 -4 -96 -35 -168 -70 l-130 -63 -313 42 c-172 23 -314 43
-316 45 -10 12 -26 50 -26 61 0 7 15 23 34 35 42 27 66 78 66 141 0 43 -13 76
-90 231 -49 100 -90 188 -90 196 0 20 40 45 72 45 15 0 64 -13 110 -30 127
-46 159 -43 314 34 171 84 204 121 204 225 0 36 -11 70 -46 142 -51 106 -72
132 -128 161 -38 20 -85 21 -171 4 -26 -6 -45 5 -150 85 -66 50 -140 100 -164
111 -67 31 -113 21 -295 -66 -87 -42 -161 -75 -163 -73 -9 10 131 190 207 266
94 95 182 164 299 235 79 48 212 109 265 122 26 6 28 5 22 -12 -28 -68 -11
-157 45 -246 38 -59 62 -74 184 -118 l100 -35 70 -137 c78 -151 92 -171 150
-202 34 -18 57 -21 155 -21 125 0 149 7 204 62 63 62 80 142 49 239 -26 85
-21 90 183 189 98 47 182 85 187 85 12 0 99 -72 184 -152 34 -32 68 -58 76
-58 56 0 97 53 78 101 -18 49 -222 221 -356 301 -166 99 -385 181 -565 212
-92 16 -354 29 -415 20z m432 -173 c119 -26 227 -62 333 -113 l85 -40 -152
-74 c-128 -62 -157 -80 -182 -114 -40 -56 -55 -123 -40 -180 22 -89 23 -116 0
-139 -18 -18 -33 -21 -97 -21 -41 0 -84 5 -95 10 -11 6 -51 73 -89 150 -81
162 -95 175 -235 225 -53 19 -99 35 -101 35 -8 0 -54 101 -54 119 0 11 16 49
36 85 33 61 38 65 77 70 23 3 53 8 67 10 64 12 358 -4 447 -23z m-1025 -767
c166 -124 209 -140 296 -110 54 19 69 8 116 -93 32 -69 36 -84 25 -97 -7 -9
-62 -40 -122 -71 l-109 -54 -105 35 c-122 42 -169 44 -239 12 -61 -28 -99 -75
-113 -137 -14 -62 -4 -93 89 -279 101 -201 98 -193 57 -218 -40 -23 -77 -92
-77 -144 0 -20 14 -62 33 -99 48 -95 60 -99 427 -148 168 -23 324 -41 347 -41
33 0 75 16 176 67 74 36 140 64 148 61 8 -3 58 -99 113 -212 l99 -205 -37
-110 c-41 -125 -43 -152 -16 -215 10 -25 16 -47 12 -50 -16 -10 -169 -37 -265
-47 -242 -25 -555 34 -784 149 -278 140 -526 388 -662 661 -161 323 -199 677
-112 1025 49 192 29 173 301 302 129 62 244 113 254 113 10 1 77 -42 148 -95z
m2009 -347 l173 -74 10 -39 c17 -72 12 -389 -7 -489 -24 -118 -69 -255 -118
-363 l-40 -87 -44 83 c-82 158 -105 171 -333 179 -92 3 -173 10 -180 16 -7 6
-45 73 -83 149 -48 94 -81 146 -102 162 -18 14 -77 41 -131 60 -55 20 -106 42
-113 48 -9 7 -13 26 -11 47 3 35 7 38 103 88 55 29 112 52 126 53 14 0 59 -11
99 -25 150 -51 207 -27 335 140 47 62 92 116 98 119 27 10 52 3 218 -67z"/>
<path d="M4689 1910 c-26 -4 -67 -17 -91 -28 -26 -11 -201 -150 -409 -324
-200 -167 -369 -307 -375 -311 -7 -4 -25 22 -48 68 -41 84 -92 134 -176 174
l-55 26 -475 5 c-555 7 -535 3 -714 120 -60 38 -143 83 -186 99 -312 121 -650
56 -900 -171 l-52 -48 -159 0 -159 0 0 69 c0 84 -13 125 -46 140 -35 15 -763
16 -798 0 -13 -7 -30 -23 -36 -38 -7 -18 -10 -272 -8 -839 l3 -814 24 -19 c22
-18 44 -19 411 -19 214 0 396 3 405 6 28 11 45 60 45 134 l0 70 178 0 179 0
284 -85 c156 -47 313 -93 349 -102 97 -24 1449 -32 1560 -9 149 31 182 54 512
343 200 176 228 205 228 234 0 32 -39 69 -74 69 -29 0 -64 -28 -267 -205 -267
-235 -299 -258 -387 -285 -61 -19 -95 -20 -751 -20 -536 1 -702 4 -761 14 -41
8 -211 55 -377 105 l-301 91 -186 0 -186 0 0 180 c0 191 -6 220 -47 239 -34
16 -47 14 -77 -10 l-26 -20 0 -300 0 -299 -295 0 -295 0 0 720 0 720 295 0
295 0 0 -294 0 -295 26 -20 c30 -24 43 -26 77 -10 41 19 47 48 47 234 l0 175
195 0 194 0 58 56 c73 71 124 106 216 150 214 101 476 81 681 -52 44 -30 113
-69 151 -88 128 -65 143 -66 617 -66 266 0 446 -4 477 -11 145 -31 221 -186
154 -315 -24 -47 -89 -99 -141 -114 -23 -6 -226 -10 -544 -10 l-507 0 -21 -22
c-25 -27 -26 -69 -1 -99 l19 -24 482 -3 c268 -1 513 1 551 7 129 18 241 93
297 201 35 66 848 744 920 767 100 32 209 -14 256 -109 32 -64 33 -122 5 -189
-19 -44 -57 -80 -303 -296 -370 -324 -366 -320 -366 -359 0 -54 55 -88 101
-64 44 24 646 559 670 597 76 116 86 260 26 378 -70 140 -234 222 -388 195z"/>
</g>
</svg>
